<svg width="65" height="66" viewBox="0 0 65 66" fill="none" xmlns="http://www.w3.org/2000/svg">
<g filter="url(#filter0_d_415_1871)">
<path d="M40 29.0714C40 29.6237 39.5523 30.0714 39 30.0714H34.5714C34.0191 30.0714 33.5714 30.5191 33.5714 31.0714V35.5C33.5714 36.0523 33.1237 36.5 32.5714 36.5H32.4286C31.8763 36.5 31.4286 36.0523 31.4286 35.5V31.0714C31.4286 30.5191 30.9809 30.0714 30.4286 30.0714H26C25.4477 30.0714 25 29.6237 25 29.0714V28.9286C25 28.3763 25.4477 27.9286 26 27.9286H30.4286C30.9809 27.9286 31.4286 27.4809 31.4286 26.9286V22.5C31.4286 21.9477 31.8763 21.5 32.4286 21.5H32.5714C33.1237 21.5 33.5714 21.9477 33.5714 22.5V26.9286C33.5714 27.4809 34.0191 27.9286 34.5714 27.9286H39C39.5523 27.9286 40 28.3763 40 28.9286V29.0714Z" fill="#007BFF"/>
<path d="M32.5 39.5C26.701 39.5 22 34.799 22 29H18C18 37.0081 24.4919 43.5 32.5 43.5V39.5ZM43 29C43 34.799 38.299 39.5 32.5 39.5V43.5C40.5081 43.5 47 37.0081 47 29H43ZM32.5 18.5C38.299 18.5 43 23.201 43 29H47C47 20.9919 40.5081 14.5 32.5 14.5V18.5ZM32.5 14.5C24.4919 14.5 18 20.9919 18 29H22C22 23.201 26.701 18.5 32.5 18.5V14.5Z" fill="#007BFF"/>
</g>
<defs>
<filter id="filter0_d_415_1871" x="0" y="0.5" width="65" height="65" filterUnits="userSpaceOnUse" color-interpolation-filters="sRGB">
<feFlood flood-opacity="0" result="BackgroundImageFix"/>
<feColorMatrix in="SourceAlpha" type="matrix" values="0 0 0 0 0 0 0 0 0 0 0 0 0 0 0 0 0 0 127 0" result="hardAlpha"/>
<feOffset dy="4"/>
<feGaussianBlur stdDeviation="10"/>
<feComposite in2="hardAlpha" operator="out"/>
<feColorMatrix type="matrix" values="0 0 0 0 0 0 0 0 0 0 0 0 0 0 0 0 0 0 0.12 0"/>
<feBlend mode="normal" in2="BackgroundImageFix" result="effect1_dropShadow_415_1871"/>
<feBlend mode="normal" in="SourceGraphic" in2="effect1_dropShadow_415_1871" result="shape"/>
</filter>
</defs>
</svg>
