<svg width="24" height="24" viewBox="0 0 24 24" fill="none" xmlns="http://www.w3.org/2000/svg">
<path d="M0 12C0 5.37258 5.37258 0 12 0V0C18.6274 0 24 5.37258 24 12V12C24 18.6274 18.6274 24 12 24V24C5.37258 24 0 18.6274 0 12V12Z" fill="#050537"/>
<path d="M9.13629 15.5V8.5H12.4163C13.2563 8.5 13.8963 8.66667 14.3363 9C14.7763 9.32667 14.9963 9.76667 14.9963 10.32C14.9963 10.6933 14.9096 11.0133 14.7363 11.28C14.563 11.54 14.3296 11.7433 14.0363 11.89C13.7496 12.03 13.4363 12.1 13.0963 12.1L13.2763 11.74C13.6696 11.74 14.023 11.8133 14.3363 11.96C14.6496 12.1 14.8963 12.3067 15.0763 12.58C15.263 12.8533 15.3563 13.1933 15.3563 13.6C15.3563 14.2 15.1263 14.6667 14.6663 15C14.2063 15.3333 13.523 15.5 12.6163 15.5H9.13629ZM10.4363 14.48H12.5363C13.023 14.48 13.3963 14.4 13.6563 14.24C13.9163 14.08 14.0463 13.8233 14.0463 13.47C14.0463 13.1233 13.9163 12.87 13.6563 12.71C13.3963 12.5433 13.023 12.46 12.5363 12.46H10.3363V11.45H12.2763C12.7296 11.45 13.0763 11.37 13.3163 11.21C13.563 11.05 13.6863 10.81 13.6863 10.49C13.6863 10.1633 13.563 9.92 13.3163 9.76C13.0763 9.6 12.7296 9.52 12.2763 9.52H10.4363V14.48Z" fill="white"/>
<path d="M9.13629 15.5H8.13629V16.5H9.13629V15.5ZM9.13629 8.5V7.5H8.13629V8.5H9.13629ZM14.3363 9L13.7324 9.79713L13.7402 9.80291L14.3363 9ZM14.7363 11.28L15.5684 11.8347L15.5747 11.825L14.7363 11.28ZM14.0363 11.89L14.4751 12.7886L14.4835 12.7844L14.0363 11.89ZM13.0963 12.1L12.2019 11.6528L11.4783 13.1H13.0963V12.1ZM13.2763 11.74V10.74H12.6583L12.3819 11.2928L13.2763 11.74ZM14.3363 11.96L13.9123 12.8657L13.9203 12.8694L13.9283 12.873L14.3363 11.96ZM15.0763 12.58L14.2411 13.13L14.2457 13.137L14.2505 13.144L15.0763 12.58ZM10.4363 14.48H9.43629V15.48H10.4363V14.48ZM13.6563 14.24L13.1322 13.3883L13.1322 13.3883L13.6563 14.24ZM13.6563 12.71L13.1166 13.5519L13.1244 13.5568L13.1322 13.5617L13.6563 12.71ZM10.3363 12.46H9.33629V13.46H10.3363V12.46ZM10.3363 11.45V10.45H9.33629V11.45H10.3363ZM13.3163 11.21L12.7721 10.371L12.7616 10.3779L13.3163 11.21ZM13.3163 9.76L12.7615 10.5921L12.7721 10.599L13.3163 9.76ZM10.4363 9.52V8.52H9.43629V9.52H10.4363ZM10.1363 15.5V8.5H8.13629V15.5H10.1363ZM9.13629 9.5H12.4163V7.5H9.13629V9.5ZM12.4163 9.5C13.1459 9.5 13.5359 9.64823 13.7324 9.79709L14.9401 8.20291C14.2566 7.6851 13.3667 7.5 12.4163 7.5V9.5ZM13.7402 9.80291C13.9232 9.93877 13.9963 10.0795 13.9963 10.32H15.9963C15.9963 9.45384 15.6294 8.71456 14.9324 8.19709L13.7402 9.80291ZM13.9963 10.32C13.9963 10.5341 13.9485 10.6571 13.8978 10.735L15.5747 11.825C15.8707 11.3696 15.9963 10.8525 15.9963 10.32H13.9963ZM13.9042 10.7253C13.8323 10.8332 13.7348 10.9227 13.5891 10.9956L14.4835 12.7844C14.9245 12.5639 15.2936 12.2468 15.5683 11.8347L13.9042 10.7253ZM13.5975 10.9914C13.4564 11.0603 13.2944 11.1 13.0963 11.1V13.1C13.5782 13.1 14.0429 12.9997 14.4751 12.7886L13.5975 10.9914ZM13.9907 12.5472L14.1707 12.1872L12.3819 11.2928L12.2019 11.6528L13.9907 12.5472ZM13.2763 12.74C13.5432 12.74 13.7488 12.7891 13.9123 12.8657L14.7602 11.0543C14.2971 10.8375 13.796 10.74 13.2763 10.74V12.74ZM13.9283 12.873C14.0765 12.9392 14.1712 13.0239 14.2411 13.13L15.9115 12.03C15.6213 11.5895 15.2228 11.2608 14.7442 11.047L13.9283 12.873ZM14.2505 13.144C14.3 13.2165 14.3563 13.3481 14.3563 13.6H16.3563C16.3563 13.0386 16.2259 12.4902 15.9021 12.016L14.2505 13.144ZM14.3563 13.6C14.3563 13.9006 14.2633 14.0571 14.0795 14.1903L15.2531 15.8097C15.9893 15.2762 16.3563 14.4994 16.3563 13.6H14.3563ZM14.0795 14.1903C13.8648 14.3459 13.4282 14.5 12.6163 14.5V16.5C13.6177 16.5 14.5478 16.3208 15.2531 15.8097L14.0795 14.1903ZM12.6163 14.5H9.13629V16.5H12.6163V14.5ZM10.4363 15.48H12.5363V13.48H10.4363V15.48ZM12.5363 15.48C13.1081 15.48 13.6952 15.3903 14.1804 15.0917L13.1322 13.3883C13.0974 13.4097 12.9378 13.48 12.5363 13.48V15.48ZM14.1804 15.0917C14.7872 14.7182 15.0463 14.1061 15.0463 13.47H13.0463C13.0463 13.5249 13.0364 13.5157 13.0567 13.4757C13.0666 13.4561 13.0804 13.4361 13.0968 13.4185C13.113 13.4012 13.1266 13.3918 13.1322 13.3883L14.1804 15.0917ZM15.0463 13.47C15.0463 12.8319 14.7808 12.2278 14.1804 11.8583L13.1322 13.5617C13.128 13.5591 13.1153 13.5505 13.0996 13.5338C13.0835 13.5168 13.0695 13.4969 13.0591 13.4766C13.0375 13.4345 13.0463 13.4214 13.0463 13.47H15.0463ZM14.196 11.8681C13.707 11.5547 13.1133 11.46 12.5363 11.46V13.46C12.9326 13.46 13.0856 13.532 13.1166 13.5519L14.196 11.8681ZM12.5363 11.46H10.3363V13.46H12.5363V11.46ZM11.3363 12.46V11.45H9.33629V12.46H11.3363ZM10.3363 12.45H12.2763V10.45H10.3363V12.45ZM12.2763 12.45C12.8231 12.45 13.3975 12.3577 13.871 12.0421L12.7616 10.3779C12.7624 10.3774 12.7336 10.3966 12.6514 10.4156C12.5687 10.4347 12.4468 10.45 12.2763 10.45V12.45ZM13.8605 12.049C14.42 11.686 14.6863 11.1132 14.6863 10.49H12.6863C12.6863 10.5204 12.681 10.4984 12.7044 10.4529C12.7154 10.4315 12.7293 10.4119 12.7441 10.396C12.7585 10.3804 12.7695 10.3727 12.7721 10.371L13.8605 12.049ZM14.6863 10.49C14.6863 9.86901 14.4268 9.28839 13.8605 8.92104L12.7721 10.599C12.7681 10.5964 12.7562 10.5879 12.7413 10.5716C12.7261 10.555 12.7124 10.5354 12.7018 10.5146C12.6798 10.4711 12.6863 10.453 12.6863 10.49H14.6863ZM13.871 8.92795C13.3975 8.61231 12.8231 8.52 12.2763 8.52V10.52C12.4468 10.52 12.5687 10.5353 12.6514 10.5544C12.7336 10.5734 12.7624 10.5926 12.7616 10.592L13.871 8.92795ZM12.2763 8.52H10.4363V10.52H12.2763V8.52ZM9.43629 9.52V14.48H11.4363V9.52H9.43629Z" fill="#050537"/>
<path d="M12 23C5.92487 23 1 18.0751 1 12H-1C-1 19.1797 4.8203 25 12 25V23ZM23 12C23 18.0751 18.0751 23 12 23V25C19.1797 25 25 19.1797 25 12H23ZM12 1C18.0751 1 23 5.92487 23 12H25C25 4.8203 19.1797 -1 12 -1V1ZM12 -1C4.8203 -1 -1 4.8203 -1 12H1C1 5.92487 5.92487 1 12 1V-1Z" fill="white"/>
</svg>
