<svg width="20" height="20" viewBox="0 0 20 20" fill="none" xmlns="http://www.w3.org/2000/svg">
<path d="M6.71054 15.9825H7.21054V15.4825V10V9.50001H6.71054H4.51756H4.01756V10V15.4825V15.9825H4.51756H6.71054ZM11.0965 15.9825H11.5965V15.4825V12.193V11.693H11.0965H8.90352H8.40352V12.193V15.4825V15.9825H8.90352H11.0965ZM11.0965 10.5H11.5965V10V7.80703V7.30703H11.0965H8.90352H8.40352V7.80703V10V10.5H8.90352H11.0965ZM15.4825 15.9825H15.9825V15.4825V4.51756V4.01756H15.4825H13.2895H12.7895V4.51756V15.4825V15.9825H13.2895H15.4825ZM2.32457 0.631592H17.6755C18.6054 0.631592 19.3684 1.39458 19.3684 2.32457V17.6755C19.3684 18.6054 18.6054 19.3684 17.6755 19.3684H2.32457C1.39458 19.3684 0.631592 18.6054 0.631592 17.6755V2.32457C0.631592 1.39458 1.39458 0.631592 2.32457 0.631592Z" stroke="white"/>
</svg>
