<svg width="65" height="65" viewBox="0 0 65 65" fill="none" xmlns="http://www.w3.org/2000/svg">
<g filter="url(#filter0_d_430_10184)">
<path d="M37.854 23.2472C38.2445 23.6377 38.2445 24.2709 37.854 24.6614L34.7225 27.7929C34.332 28.1834 34.332 28.8166 34.7225 29.2071L37.854 32.3386C38.2445 32.7291 38.2445 33.3623 37.854 33.7528L37.7529 33.8538C37.3624 34.2443 36.7293 34.2443 36.3387 33.8538L33.2073 30.7223C32.8167 30.3318 32.1836 30.3318 31.793 30.7223L28.6616 33.8538C28.2711 34.2443 27.6379 34.2443 27.2474 33.8538L27.1463 33.7528C26.7558 33.3623 26.7558 32.7291 27.1463 32.3386L30.2778 29.2071C30.6683 28.8166 30.6683 28.1834 30.2778 27.7929L27.1463 24.6614C26.7558 24.2709 26.7558 23.6377 27.1463 23.2472L27.2474 23.1462C27.6379 22.7557 28.2711 22.7557 28.6616 23.1462L31.793 26.2777C32.1836 26.6682 32.8167 26.6682 33.2073 26.2777L36.3387 23.1462C36.7293 22.7557 37.3624 22.7557 37.7529 23.1462L37.854 23.2472Z" fill="#FF0000"/>
<path d="M32.5 39C26.701 39 22 34.299 22 28.5H18C18 36.5081 24.4919 43 32.5 43V39ZM43 28.5C43 34.299 38.299 39 32.5 39V43C40.5081 43 47 36.5081 47 28.5H43ZM32.5 18C38.299 18 43 22.701 43 28.5H47C47 20.4919 40.5081 14 32.5 14V18ZM32.5 14C24.4919 14 18 20.4919 18 28.5H22C22 22.701 26.701 18 32.5 18V14Z" fill="#FF0000"/>
</g>
<defs>
<filter id="filter0_d_430_10184" x="0" y="0" width="65" height="65" filterUnits="userSpaceOnUse" color-interpolation-filters="sRGB">
<feFlood flood-opacity="0" result="BackgroundImageFix"/>
<feColorMatrix in="SourceAlpha" type="matrix" values="0 0 0 0 0 0 0 0 0 0 0 0 0 0 0 0 0 0 127 0" result="hardAlpha"/>
<feOffset dy="4"/>
<feGaussianBlur stdDeviation="10"/>
<feComposite in2="hardAlpha" operator="out"/>
<feColorMatrix type="matrix" values="0 0 0 0 0 0 0 0 0 0 0 0 0 0 0 0 0 0 0.12 0"/>
<feBlend mode="normal" in2="BackgroundImageFix" result="effect1_dropShadow_430_10184"/>
<feBlend mode="normal" in="SourceGraphic" in2="effect1_dropShadow_430_10184" result="shape"/>
</filter>
</defs>
</svg>
