<svg width="20" height="20" viewBox="0 0 20 20" fill="none" xmlns="http://www.w3.org/2000/svg">
<g clip-path="url(#clip0_2920_20101)">
<path d="M0 10C0 4.47715 4.47715 0 10 0C15.5228 0 20 4.47715 20 10C20 15.5228 15.5228 20 10 20C4.47715 20 0 15.5228 0 10Z" fill="#D9D9D9"/>
<path d="M10 1.66666C5.40002 1.66666 1.66669 5.39999 1.66669 9.99999C1.66669 14.6 5.40002 18.3333 10 18.3333C14.6 18.3333 18.3334 14.6 18.3334 9.99999C18.3334 5.39999 14.6 1.66666 10 1.66666ZM11.175 15.075V16.6667H8.95002V15.0583C7.52502 14.7583 6.31669 13.8417 6.22502 12.225H7.85835C7.94169 13.1 8.54169 13.7833 10.0667 13.7833C11.7 13.7833 12.0667 12.9667 12.0667 12.4583C12.0667 11.7667 11.7 11.1167 9.84169 10.675C7.77502 10.175 6.35835 9.32499 6.35835 7.61666C6.35835 6.18332 7.51669 5.24999 8.95002 4.94166V3.33332H11.175V4.95832C12.725 5.33332 13.5 6.50832 13.55 7.78332H11.9167C11.875 6.85832 11.3834 6.22499 10.0667 6.22499C8.81669 6.22499 8.06669 6.79166 8.06669 7.59166C8.06669 8.29166 8.60835 8.74999 10.2917 9.18332C11.975 9.61666 13.775 10.3417 13.775 12.4417C13.7667 13.9667 12.625 14.8 11.175 15.075Z" fill="#050537"/>
</g>
<defs>
<clipPath id="clip0_2920_20101">
<rect width="20" height="20" fill="white"/>
</clipPath>
</defs>
</svg>
