<svg width="28" height="28" viewBox="0 0 28 28" fill="none" xmlns="http://www.w3.org/2000/svg">
<rect x="0.518555" y="0.5" width="27" height="27" rx="13.5" fill="black"/>
<path d="M12.8387 17.432L12.2627 6.2H15.8147L15.2147 17.432H12.8387ZM14.0387 23.168C13.4787 23.168 13.0147 22.984 12.6467 22.616C12.2787 22.248 12.0947 21.808 12.0947 21.296C12.0947 20.784 12.2787 20.352 12.6467 20C13.0147 19.632 13.4787 19.448 14.0387 19.448C14.5987 19.448 15.0547 19.632 15.4067 20C15.7587 20.352 15.9347 20.784 15.9347 21.296C15.9347 21.808 15.7587 22.248 15.4067 22.616C15.0547 22.984 14.5987 23.168 14.0387 23.168Z" fill="white"/>
</svg>
