<svg width="26" height="25" viewBox="0 0 26 25" fill="none" xmlns="http://www.w3.org/2000/svg">
<path d="M12.027 19.5V8.9H13.947V19.5H12.027ZM12.987 6.86C12.6137 6.86 12.3004 6.74 12.047 6.5C11.807 6.26 11.687 5.96667 11.687 5.62C11.687 5.26 11.807 4.96 12.047 4.72C12.3004 4.48 12.6137 4.36 12.987 4.36C13.3604 4.36 13.667 4.48 13.907 4.72C14.1604 4.94667 14.287 5.23333 14.287 5.58C14.287 5.94 14.167 6.24667 13.927 6.5C13.687 6.74 13.3737 6.86 12.987 6.86Z" fill="black"/>
<rect x="0.5" y="0.5" width="25" height="24" rx="12" stroke="black"/>
</svg>
