<svg width="24" height="24" viewBox="0 0 24 24" fill="none" xmlns="http://www.w3.org/2000/svg">
<path d="M8.05257 19.079H8.55257V18.579V12V11.5H8.05257H5.42099H4.92099V12V18.579V19.079H5.42099H8.05257ZM13.3157 19.079H13.8157V18.579V14.6316V14.1316H13.3157H10.6842H10.1842V14.6316V18.579V19.079H10.6842H13.3157ZM13.3157 12.5H13.8157V12V9.36842V8.86842H13.3157H10.6842H10.1842V9.36842V12V12.5H10.6842H13.3157ZM18.5789 19.079H19.0789V18.579V5.42106V4.92106H18.5789H15.9473H15.4473V5.42106V18.579V19.079H15.9473H18.5789ZM2.78942 0.657898H21.2105C22.3817 0.657898 23.342 1.61825 23.342 2.78948V21.2105C23.342 22.3818 22.3817 23.3421 21.2105 23.3421H2.78942C1.61819 23.3421 0.657837 22.3818 0.657837 21.2105V2.78948C0.657837 1.61825 1.61819 0.657898 2.78942 0.657898Z" stroke="white"/>
</svg>
