<svg width="20" height="20" viewBox="0 0 20 20" fill="none" xmlns="http://www.w3.org/2000/svg">
<path d="M13.77 5.52084C13.77 7.83454 11.8962 9.70834 9.58252 9.70834C7.26882 9.70834 5.39502 7.83454 5.39502 5.52084C5.39502 3.20714 7.26882 1.33334 9.58252 1.33334C11.8962 1.33334 13.77 3.20714 13.77 5.52084ZM0.70752 17.2396C0.70752 16.6439 1.00194 16.0852 1.57147 15.5595C2.14441 15.0307 2.96181 14.5699 3.90762 14.191C5.80003 13.4329 8.08057 13.0521 9.58252 13.0521C11.0845 13.0521 13.365 13.4329 15.2574 14.191C16.2032 14.5699 17.0206 15.0307 17.5936 15.5595C18.1631 16.0852 18.4575 16.6439 18.4575 17.2396V19.0833H0.70752V17.2396Z" stroke="white"/>
</svg>
