<svg width="20" height="21" viewBox="0 0 20 21" fill="none" xmlns="http://www.w3.org/2000/svg">
<path d="M13.7695 6.02075C13.7695 8.33445 11.8957 10.2083 9.58203 10.2083C7.26833 10.2083 5.39453 8.33445 5.39453 6.02075C5.39453 3.70705 7.26833 1.83325 9.58203 1.83325C11.8957 1.83325 13.7695 3.70705 13.7695 6.02075ZM0.707031 17.7395C0.707031 17.1438 1.00145 16.5851 1.57099 16.0594C2.14392 15.5307 2.96132 15.0698 3.90713 14.6909C5.79954 13.9328 8.08008 13.552 9.58203 13.552C11.084 13.552 13.3645 13.9328 15.2569 14.6909C16.2027 15.0698 17.0201 15.5307 17.5931 16.0594C18.1626 16.5851 18.457 17.1438 18.457 17.7395V19.5833H0.707031V17.7395Z" stroke="white"/>
</svg>
